<?xml version="1.0" encoding="UTF-8"?>
<svg version="1.1" xmlns="http://www.w3.org/2000/svg" width="512" height="512">
<path d="M0 0 C113.52 0 227.04 0 344 0 C342.85121548 24.12447501 342.85121548 24.12447501 342.09596252 34.35127258 C342.01076463 35.53398953 341.92556674 36.71670648 341.83778709 37.93526334 C341.60635184 41.14072065 341.37264396 44.34600166 341.13784969 47.55121434 C340.88303307 51.03775403 340.6312812 54.52451538 340.37908936 58.01124573 C339.88685513 64.80982692 339.39178622 71.60819867 338.89557857 78.4064909 C338.49194504 83.93687473 338.0892431 89.46732566 337.68717766 94.99782372 C337.60082318 96.18558249 337.60082318 96.18558249 337.51272417 97.39733639 C337.39571983 99.00666845 337.27871583 100.61600053 337.16171216 102.22533264 C336.06887027 117.2549098 334.97258525 132.28423433 333.87524741 147.3134838 C332.87390497 161.02950925 331.87703989 174.74585587 330.88225652 188.46235845 C329.85706632 202.59752672 328.82877681 216.73246647 327.79719871 230.86717004 C327.21957382 238.78256498 326.64315265 246.69804299 326.07000923 254.61376381 C325.58250369 261.34629585 325.09205748 268.07860602 324.59792394 274.81065498 C324.34648224 278.2373623 324.09631721 281.664149 323.84983635 285.09121704 C320.75606969 327.99032177 320.75606969 327.99032177 313.22265625 334.546875 C308.99707631 337.72722692 305.68554407 339.12197587 300.46774769 339.13701439 C299.53315812 339.14208893 298.59856855 339.14716347 297.63565809 339.15239179 C296.60707942 339.15288955 295.57850076 339.15338731 294.51875305 339.15390015 C293.42744227 339.1582824 292.33613149 339.16266465 291.21175069 339.1671797 C287.53610357 339.18058919 283.86048044 339.1867514 280.18481445 339.19287109 C277.55699047 339.20077033 274.92916757 339.20903917 272.30134583 339.21765137 C264.40186763 339.24217163 256.50238314 339.2568019 248.6028786 339.26971143 C246.37162352 339.27342362 244.14036906 339.27739683 241.9091146 339.2814641 C228.05258952 339.30670071 214.19606345 339.32875328 200.33952045 339.34119225 C197.13007415 339.34412193 193.92062787 339.34708359 190.71118164 339.35009766 C189.51464698 339.35121673 189.51464698 339.35121673 188.29393991 339.35235842 C175.37288145 339.36501108 162.45196062 339.39823316 149.5309665 339.43989949 C136.26448639 339.48232913 122.99807672 339.50588845 109.73152894 339.51111281 C102.28314265 339.51452575 94.83497147 339.52626696 87.38665199 339.55921555 C81.04302308 339.58723145 74.69965336 339.59820875 68.35596738 339.58702008 C65.12036773 339.58183718 61.88542385 339.58742788 58.64987946 339.60948563 C55.13818802 339.63212289 51.62786316 339.62390561 48.11616516 339.60800171 C47.09874011 339.6218838 46.08131506 339.63576588 45.03305894 339.65006864 C37.68146622 339.56805272 32.72893555 337.7068893 27.47750455 332.48650587 C22.63317742 326.93836103 21.59779709 322.2668341 21.00393677 315.07011414 C20.92252036 314.15027605 20.84110396 313.23043796 20.75722039 312.28272599 C19.71339464 300.17958174 18.89855151 288.05794058 18.07700896 275.93811643 C17.83504332 272.37779399 17.5897912 268.81769753 17.34500122 265.25756836 C16.86829814 258.31694823 16.39460149 251.37612621 15.92206846 244.43522105 C15.53787641 238.79262641 15.15261064 233.15010601 14.76660538 227.50763512 C14.71136913 226.70018679 14.65613289 225.89273846 14.59922282 225.06082201 C14.48696762 223.41991042 14.37471068 221.77899895 14.26245202 220.13808759 C13.21435441 204.8157828 12.16977706 189.49323957 11.12637712 174.17061426 C10.23225385 161.04151642 9.33481921 147.91264821 8.43505859 134.78393555 C7.38717839 119.49395749 6.34154047 104.20382863 5.29931843 88.91346377 C5.18813697 87.28243942 5.07695187 85.65141532 4.96576309 84.02039146 C4.88372475 82.8169678 4.88372475 82.8169678 4.80002906 81.58923254 C4.41557456 75.95201126 4.02950641 70.31490184 3.64278793 64.67783546 C3.1717546 57.81123064 2.70313159 50.9444664 2.23757778 44.0774878 C2.00028719 40.57834814 1.76192683 37.07929042 1.52059174 33.58042717 C1.25918714 29.78203991 1.00198172 25.98339047 0.74581909 22.18464661 C0.66936437 21.08805168 0.59290964 19.99145676 0.5141381 18.86163169 C0.44570359 17.83403698 0.37726907 16.80644227 0.30676079 15.74770832 C0.24708968 14.8728246 0.18741857 13.99794087 0.12593925 13.09654552 C-0.05147166 8.73443475 0 4.36571701 0 0 Z M110 51 C106.58997395 55.27652113 106.57546194 59.36045883 106.61904907 64.6159668 C106.6143691 65.48242419 106.60968913 66.34888159 106.60486734 67.24159527 C106.59290348 70.14429223 106.60238005 73.0465183 106.61181641 75.94921875 C106.60775133 78.03048986 106.60240981 80.11175882 106.59588623 82.19302368 C106.58219931 87.84582934 106.58751702 93.49847089 106.59702349 99.15127945 C106.60461291 105.06399227 106.59757647 110.97669093 106.59286499 116.8894043 C106.58740536 126.81919887 106.59460454 136.74892652 106.60888672 146.67871094 C106.62521359 158.16277904 106.61992523 169.64668738 106.6034075 181.13075161 C106.58979859 190.98648923 106.58787008 200.84217872 106.59572351 210.69792271 C106.60040328 216.58618858 106.60101647 222.47437932 106.59111404 228.36264038 C106.58245536 233.89811059 106.58844634 239.43337457 106.60579681 244.96882248 C106.60976751 247.00177035 106.60861768 249.03473554 106.60200882 251.06767654 C106.59382637 253.84003066 106.60407506 256.61172149 106.61904907 259.3840332 C106.60901082 260.59439255 106.60901082 260.59439255 106.59876978 261.82920361 C106.64674284 266.39978879 107.12310522 269.39207996 110 273 C114.77070047 276.39453687 118.00775813 277.87159882 124 277 C128.61862787 274.42422676 132.30640263 272.0807921 134 267 C134.10673641 264.2173292 134.15656256 261.45911765 134.16062927 258.67596436 C134.16571709 257.81671049 134.17080491 256.95745663 134.17604691 256.07216477 C134.19179103 253.18190054 134.2003016 250.29166134 134.20874023 247.40136719 C134.21827702 245.33348938 134.2281681 243.26561319 134.23838806 241.19773865 C134.26979008 234.39747007 134.2900401 227.59718918 134.30859375 220.796875 C134.31189107 219.64045659 134.31518839 218.48403818 134.31858563 217.29257679 C134.34936431 206.38950897 134.37607563 195.48643841 134.39300442 184.58333969 C134.41492192 170.63020855 134.45691648 156.67746169 134.52644199 142.72448421 C134.57365396 132.9171789 134.59793417 123.10997739 134.6052013 113.302562 C134.61016129 107.44310727 134.62527604 101.58408555 134.6649456 95.72475433 C134.7017759 90.21216862 134.71023319 84.7002639 134.69693947 79.1875782 C134.69699348 77.16511627 134.70731313 75.14262444 134.7286911 73.1202755 C134.75634139 70.35668418 134.74687877 67.59558189 134.72825623 64.83197021 C134.74505115 64.03341637 134.76184608 63.23486253 134.77914995 62.41211009 C134.68969357 57.09240449 133.27465513 54.31938812 129.67752224 50.41606355 C126.74879294 47.94380613 124.50602606 47.05728597 120.6875 46.625 C115.94799249 47.10698381 113.88171208 48.23801256 110 51 Z M211.125 53.4375 C208.86076006 58.59493542 208.8550627 63.66618425 208.86628723 69.22286987 C208.86402167 70.04708061 208.86175612 70.87129135 208.85942191 71.72047818 C208.85309564 74.4801703 208.85391039 77.23981315 208.85473633 79.99951172 C208.85174399 81.97901472 208.84834129 83.95851715 208.84455872 85.9380188 C208.83572239 91.31405745 208.83338076 96.69008018 208.83274293 102.06612539 C208.83179332 106.554221 208.82811444 111.04231289 208.82457083 115.53040707 C208.81642778 126.11906886 208.81398648 136.70772215 208.81469727 147.29638672 C208.81529813 158.21916032 208.80474419 169.14188454 208.7889536 180.06464565 C208.77587866 189.44312455 208.77051335 198.82158732 208.77115268 208.20007527 C208.77140766 213.80111433 208.76855599 219.40210951 208.75797462 225.0031395 C208.74829437 230.27099446 208.748214 235.53876357 208.75549126 240.80662155 C208.75653716 242.73875555 208.75417386 244.67089489 208.7481308 246.60301971 C208.74040883 249.24316831 208.74505706 251.88302059 208.75276184 254.52316284 C208.74761828 255.28533391 208.74247471 256.04750498 208.73717529 256.83277214 C208.77588617 262.84715434 209.36903294 268.06859164 213.375 272.8125 C216.23570244 275.1964187 218.37554675 276.8848115 222.1484375 277.15234375 C228.01958653 276.58582937 230.90852295 275.2910613 235 271 C237.64801251 267.19706068 237.28463777 263.04035185 237.26742554 258.58694458 C237.27195665 257.73021428 237.27648776 256.87348398 237.28115618 255.99079216 C237.29383395 253.11506339 237.29217764 250.23952318 237.29052734 247.36376953 C237.29651047 245.30397294 237.30331551 243.24417859 237.31088257 241.18438721 C237.32857135 235.58521426 237.33323915 229.98610242 237.33451414 224.38690424 C237.33641193 219.71484539 237.34376805 215.04280081 237.35085833 210.37074745 C237.36715069 199.3492084 237.37202649 188.32770204 237.37060547 177.30615234 C237.36940368 165.93173152 237.39051114 154.55750034 237.4220928 143.18312752 C237.44823163 133.42166599 237.45897377 123.66026649 237.45769465 113.89877021 C237.45718433 108.06686674 237.46290627 102.23513176 237.48405075 96.40326309 C237.50339284 90.91866116 237.50358509 85.43438916 237.48901749 79.9497757 C237.48692332 77.93659103 237.49166634 75.92338592 237.5037384 73.91023636 C237.51915073 71.16210902 237.50990938 68.41512502 237.49447632 65.66702271 C237.50476344 64.87012909 237.51505057 64.07323548 237.52564943 63.25219357 C237.46111637 58.05316757 236.4061532 55.13962534 233 51 C229.76830319 48.27101158 227.75762231 47.11019961 223.5625 46.5 C218.20887371 47.25138615 214.51471472 49.03087086 211.125 53.4375 Z " fill="#FC0004" transform="translate(84,173)"/>
<path d="M0 0 C1.47732321 -0.00417754 2.95464321 -0.00965735 4.4319573 -0.01631981 C8.4741449 -0.03073803 12.51612798 -0.0265411 16.5583266 -0.019153 C20.92447297 -0.01441466 25.29057552 -0.02693703 29.65670776 -0.03717041 C38.20338651 -0.05435041 46.74999171 -0.05520012 55.29668324 -0.04995751 C62.24433127 -0.04591327 69.19195758 -0.04736238 76.13960457 -0.05270576 C77.6238136 -0.0538284 77.6238136 -0.0538284 79.13800665 -0.05497371 C81.14822153 -0.05650521 83.15843641 -0.05804356 85.16865129 -0.05958868 C104.0120046 -0.0733107 122.85531637 -0.067878 141.69866873 -0.05640347 C158.93114174 -0.04647028 176.16350739 -0.05941378 193.39596384 -0.08333766 C211.0990825 -0.10772943 228.80215115 -0.1173364 246.50528628 -0.11068493 C256.44075014 -0.10719303 266.37613142 -0.10942293 276.31158257 -0.12693596 C284.76887835 -0.14165884 293.22603339 -0.14229217 301.68332642 -0.12486505 C305.99650851 -0.11635362 310.30943921 -0.11420898 314.62260818 -0.1295166 C318.57482342 -0.14336934 322.52657203 -0.1385933 326.47876031 -0.11927737 C327.9046342 -0.11551884 329.33054552 -0.11843514 330.75638603 -0.12888902 C342.64766443 -0.20983897 352.62900252 1.8860706 361.39393616 10.38768005 C375.01505668 26.97517793 369.39393616 44.9702533 369.39393616 67.38768005 C234.09393616 67.38768005 98.79393616 67.38768005 -40.60606384 67.38768005 C-40.60606384 19.05158047 -40.60606384 19.05158047 -30.60606384 8.38768005 C-21.80786568 0.23819696 -11.46291717 -0.05288706 0 0 Z " fill="#FB0004" transform="translate(91.60606384277344,77.61231994628906)"/>
<path d="M0 0 C1.91377441 -0.00856522 1.91377441 -0.00856522 3.86621094 -0.01730347 C5.28305044 -0.01854881 6.69989005 -0.01967391 8.11672974 -0.02069092 C9.60657881 -0.02531944 11.09642669 -0.03034415 12.58627319 -0.03573608 C16.63588844 -0.04885784 20.68548711 -0.05530447 24.7351203 -0.05974674 C27.26474194 -0.06267752 29.79435906 -0.06678232 32.32397842 -0.07125092 C40.23744335 -0.08492458 48.15089793 -0.09459216 56.06437385 -0.09845281 C65.20164078 -0.10293492 74.33875822 -0.12049044 83.47597969 -0.1494534 C90.53763412 -0.171061 97.59924647 -0.18115658 104.66093361 -0.18249393 C108.87922735 -0.18354252 113.09738054 -0.18946186 117.3156395 -0.20731354 C121.28340002 -0.22377859 125.2509141 -0.22595744 129.21869659 -0.21717453 C130.67435745 -0.21640334 132.13003147 -0.2207577 133.58565903 -0.23063278 C135.57399292 -0.24333 137.56242559 -0.23569187 139.55078125 -0.22705078 C140.6631761 -0.22851734 141.77557095 -0.2299839 142.92167473 -0.2314949 C147.51621672 0.34181992 150.05892244 2.22670241 153.15237427 5.57794189 C161.12798925 17.25652098 155.90237427 43.21769313 155.90237427 50.14044189 C99.14237427 50.14044189 42.38237427 50.14044189 -16.09762573 50.14044189 C-16.09762573 8.70294189 -16.09762573 8.70294189 -11.09762573 2.76544189 C-7.55457931 -0.11328332 -4.40110517 0.01177701 0 0 Z " fill="#FB0005" transform="translate(186.09762573242188,-0.14044189453125)"/>
</svg>
