<?xml version="1.0" encoding="UTF-8"?>
<svg version="1.1" xmlns="http://www.w3.org/2000/svg" width="512" height="512">
<path d="M0 0 C0.78117187 0.34756348 1.56234375 0.69512695 2.3671875 1.05322266 C39.51469136 17.72866939 74.12071732 43.50904866 99 76 C99.41958984 76.54317871 99.83917969 77.08635742 100.27148438 77.64599609 C117.32928937 99.83981901 130.97162695 124.49627155 140 151 C140.4638208 152.34868164 140.4638208 152.34868164 140.93701172 153.72460938 C162.5620525 217.61626148 157.63396357 288.95129496 127.88671875 349.40625 C121.98411543 361.13092282 115.71338978 372.3767862 108 383 C107.54834473 383.63663574 107.09668945 384.27327148 106.63134766 384.92919922 C99.68234192 394.70831083 92.10374975 403.6276217 83.73486328 412.21826172 C82.05001729 413.94863127 80.38203061 415.69404209 78.71484375 417.44140625 C71.88148392 424.52328955 64.66606196 430.77650587 56.78271484 436.66162109 C55.01244753 437.99065497 53.26536106 439.34611651 51.51953125 440.70703125 C41.30640085 448.56101293 30.35632594 454.94453328 19 461 C17.75935791 461.66346436 17.75935791 461.66346436 16.49365234 462.34033203 C-5.40601548 473.85522013 -29.70217586 481.53600264 -54 486 C-54.80598633 486.16081055 -55.61197266 486.32162109 -56.44238281 486.48730469 C-84.39610578 491.91249702 -117.09984329 491.48097109 -145 486 C-145.89557617 485.83902832 -146.79115234 485.67805664 -147.71386719 485.51220703 C-191.34887642 477.6178649 -232.44126295 457.94843132 -266 429 C-266.74507813 428.36578125 -267.49015625 427.7315625 -268.2578125 427.078125 C-281.76600887 415.26417698 -294.42122226 402.51033791 -305 388 C-305.84447783 386.87326729 -306.68953421 385.74696797 -307.53515625 384.62109375 C-336.68964253 345.31810705 -355.79656537 294.31595324 -356.23828125 245.1640625 C-356.24812042 244.25513245 -356.25795959 243.34620239 -356.26809692 242.409729 C-356.82328901 177.77216062 -338.77884662 116.56663409 -296 67 C-295.34257812 66.23171875 -294.68515625 65.4634375 -294.0078125 64.671875 C-282.77435522 51.86997274 -270.75580132 40.05161522 -257 30 C-256.34950684 29.5157959 -255.69901367 29.0315918 -255.02880859 28.53271484 C-182.90828476 -25.02042741 -82.24443592 -36.98143907 0 0 Z " fill="#FE5843" transform="translate(356,23)"/>
<path d="M0 0 C2.73977064 2.21898779 5.42441532 4.48480459 8.0859375 6.796875 C8.89933594 7.49941406 9.71273437 8.20195312 10.55078125 8.92578125 C12.40536265 10.53916928 14.2507478 12.16150538 16.0859375 13.796875 C20.19770819 11.521796 23.58952289 8.71077483 27.0859375 5.609375 C46.22764688 -10.93331683 66.13830003 -17.29092328 91.0859375 -16.203125 C111.58541776 -14.28984018 129.21338602 -1.6821364 142.2734375 13.484375 C156.14385507 31.18111466 158.82793303 52.54572602 156.6953125 74.34375 C154.36191464 93.51461789 147.4382401 111.98928859 138.0859375 128.796875 C137.52261719 129.83585938 136.95929688 130.87484375 136.37890625 131.9453125 C123.23045218 155.40929845 103.91529336 177.67871148 82.98046875 194.4609375 C80.11546649 196.77304459 77.32185085 199.15487022 74.5234375 201.546875 C63.40736503 210.80311552 51.48491843 218.99291968 39.3984375 226.921875 C38.5734375 227.46626221 37.7484375 228.01064941 36.8984375 228.5715332 C28.67122858 233.89952622 22.1020045 236.98097193 12.0859375 235.796875 C2.70810103 233.64683444 -5.16222238 227.21837345 -12.9140625 221.796875 C-14.33056233 220.81876875 -15.74723143 219.84090761 -17.1640625 218.86328125 C-29.53525978 210.27735338 -41.4264592 201.31214949 -52.46875 191.05859375 C-54.5794269 189.1063862 -56.72633807 187.22381222 -58.9140625 185.359375 C-67.8125424 177.58912772 -75.63978819 169.09113238 -82.9140625 159.796875 C-83.92277172 158.55175483 -84.93191364 157.30698512 -85.94140625 156.0625 C-110.70022548 125.11676958 -125.91063276 87.8252292 -122.9140625 47.796875 C-120.37715861 28.29576778 -108.6047039 11.12146461 -93.609375 -1.078125 C-64.97047275 -22.111286 -28.36571964 -21.44539662 0 0 Z " fill="#FEFEFE" transform="translate(238.9140625,146.203125)"/>
</svg>
