<?xml version="1.0" encoding="UTF-8"?>
<svg version="1.1" xmlns="http://www.w3.org/2000/svg" width="512" height="512">
<path d="M0 0 C0.73923706 0.70938721 0.73923706 0.70938721 1.4934082 1.43310547 C4.00759464 3.82521027 6.27579228 5.73175389 9.5 7.0625 C10.07105469 6.45664063 10.64210938 5.85078125 11.23046875 5.2265625 C34.74220817 -19.07014755 66.58535322 -33.75529009 100.5 -34.9375 C137.23162647 -35.49903834 170.1197809 -22.51016137 196.5 3.0625 C218.07831402 24.55845405 230.48674 55.77575983 230.88012695 86.05786133 C230.86086861 99.22231139 229.9681378 111.3498806 226.5 124.0625 C226.17257812 125.32320312 225.84515625 126.58390625 225.5078125 127.8828125 C221.00826543 143.089311 213.13639438 158.29477048 202.5 170.0625 C201.91117003 170.73537898 201.32234007 171.40825796 200.71566677 172.10152721 C193.31396541 180.48871315 185.38640038 188.34712843 177.49047852 196.26489258 C175.87960837 197.88367824 174.26891579 199.50264063 172.65838623 201.12176514 C167.40227889 206.40389812 162.14089197 211.68075515 156.87890625 216.95703125 C155.06108443 218.78021846 153.24326868 220.60341172 151.42545891 222.42661095 C143.86548282 230.00817616 136.30415733 237.58838978 128.73895359 245.16473866 C126.78420121 247.12241993 124.82946531 249.08011766 122.87475586 251.0378418 C122.38901704 251.52432667 121.90327822 252.01081154 121.40282004 252.51203837 C113.52240418 260.40512709 105.65234069 268.30845599 97.78641606 276.21598343 C89.68873882 284.35613432 81.58141823 292.48656684 73.46528953 300.60832328 C68.91713977 305.16012209 64.37325011 309.71598949 59.83954048 314.28217506 C55.57815168 318.57365753 51.30501651 322.85308624 47.02267456 327.12365723 C45.45668245 328.6894288 43.89493735 330.25946175 42.33787346 331.83411217 C40.20536775 333.98938053 38.05783431 336.12851262 35.90602112 338.26448059 C35.29928214 338.88510166 34.69254316 339.50572272 34.06741816 340.14515048 C27.0136347 347.0723517 18.76641785 351.11506692 8.8125 351.3125 C-4.59421888 351.1132917 -12.78102211 344.09338702 -21.84860229 334.98132324 C-22.54258594 334.29187071 -23.23656958 333.60241818 -23.95158303 332.89207315 C-26.2574611 330.59877526 -28.55621316 328.29847075 -30.85498047 325.99804688 C-32.51439375 324.34462293 -34.1742149 322.69160825 -35.83441162 321.03897095 C-40.33108104 316.5599301 -44.82127988 312.07445683 -49.30978155 307.58723259 C-52.59116649 304.30751132 -55.87461805 301.02986509 -59.15827165 297.75241545 C-67.99968561 288.92759454 -76.83653985 280.09823402 -85.66894792 271.26439971 C-86.16958671 270.76368101 -86.6702255 270.26296231 -87.18603516 269.74707031 C-87.68729255 269.24573116 -88.18854995 268.744392 -88.70499696 268.22786075 C-96.81801643 260.1140294 -104.94095372 252.01020892 -113.06847547 243.91090673 C-121.43622101 235.57198324 -129.79638944 227.22552787 -138.14887536 218.87131929 C-142.82918297 214.19035086 -147.51265433 209.51263181 -152.20391464 204.84263611 C-156.62056064 200.44546515 -161.02735093 196.03864323 -165.42702484 191.62449265 C-167.03512274 190.01431685 -168.64658069 188.40748798 -170.26179123 186.80444717 C-181.9111326 175.23714819 -192.18827679 163.53353411 -199.75 148.8125 C-200.1612915 148.01730957 -200.57258301 147.22211914 -200.99633789 146.40283203 C-205.09784212 138.23529953 -208.15280831 129.88810165 -210.5 121.0625 C-210.67644043 120.40701172 -210.85288086 119.75152344 -211.03466797 119.07617188 C-216.20762794 98.75346292 -214.99965405 76.15297936 -209.5 56.0625 C-209.32871582 55.40572266 -209.15743164 54.74894531 -208.98095703 54.07226562 C-200.88897452 23.81866722 -179.29366996 -2.29165007 -152.5 -17.9375 C-137.42573878 -26.21011918 -121.62091895 -31.85133761 -104.5 -33.9375 C-103.18128906 -34.12119141 -103.18128906 -34.12119141 -101.8359375 -34.30859375 C-64.32762167 -38.58771147 -27.38546446 -25.51399181 0 0 Z M-157.5703125 28.7578125 C-174.83718304 47.60156619 -181.36728319 72.51280727 -180.63183594 97.50439453 C-179.08094432 127.59743595 -160.89022949 148.99899665 -140.53710938 169.25244141 C-138.91975642 170.86922945 -137.30284526 172.48645954 -135.68634033 174.10409546 C-131.31951829 178.47148888 -126.94657857 182.83270914 -122.57247734 187.19281054 C-117.99381985 191.75892475 -113.42086459 196.3307426 -108.84729004 200.90194702 C-101.1774558 208.56628096 -93.50414631 216.22711701 -85.828125 223.88525391 C-77.92602592 231.7689611 -70.02605541 239.65479135 -62.12890625 247.54345703 C-61.64114076 248.03069707 -61.15337528 248.51793711 -60.65082902 249.019942 C-58.20357191 251.46458881 -55.75635625 253.90927711 -53.30916119 256.35398602 C-33.0458621 276.5965923 -12.77524977 296.83186408 7.5 317.0625 C10.28276565 315.79048163 12.33434288 314.47877329 14.49706554 312.31991005 C15.06378953 311.75901826 15.63051352 311.19812646 16.21441096 310.62023795 C16.82695414 310.00391544 17.43949732 309.38759294 18.07060242 308.75259399 C18.72920551 308.09781645 19.3878086 307.44303891 20.06636935 306.76841962 C22.27649684 304.56862724 24.47939251 302.36173313 26.68237305 300.15478516 C28.26399177 298.57751288 29.84602821 297.00065937 31.42845154 295.42419434 C35.73101008 291.13505122 40.02711389 286.8394973 44.32170463 282.54237795 C47.91038937 278.95262418 51.50204491 275.36585012 55.0936597 271.7790283 C64.05935853 262.82507109 73.01873499 253.86481837 81.97535173 244.90177946 C89.73503318 237.13694102 97.50286666 229.38031757 105.27464297 221.62758644 C113.26635004 213.65531224 121.25227663 205.67728642 129.23254615 197.69356 C133.70800232 193.21629544 138.18562715 188.74125707 142.66895103 184.27186966 C146.89209833 180.06135806 151.1078374 175.84356324 155.31817055 171.62023926 C156.85822222 170.0778339 158.40079464 168.53794034 159.94616699 167.00086594 C181.80984149 145.24606808 196.94325149 122.11250817 197.8125 90.3125 C197.32774651 63.04511612 185.83171299 39.59215105 166.48046875 20.66796875 C146.07468083 2.82961942 119.80303289 -2.50848528 93.5 -0.9375 C68.74313074 1.8028001 49.49831287 14.94626127 32.359375 32.22265625 C31.64740967 32.9401001 30.93544434 33.65754395 30.2019043 34.39672852 C28.80146753 35.81442503 27.40684419 37.23789363 26.01879883 38.66772461 C20.70068626 44.08425917 16.51260586 47.52786385 8.76171875 48.1171875 C-0.93301597 47.8827725 -8.34171552 38.33094459 -14.5859375 31.85913086 C-35.19205716 10.56598095 -60.22000428 -1.2761872 -90.0703125 -2.02734375 C-116.55984606 -1.33342658 -139.32051627 9.73628053 -157.5703125 28.7578125 Z " fill="#000000" transform="translate(247.5,94.9375)"/>
</svg>
