<?xml version="1.0" encoding="UTF-8"?>
<svg version="1.1" xmlns="http://www.w3.org/2000/svg" width="512" height="512">
<path d="M0 0 C1.0137973 0.00215515 2.0275946 0.0043103 3.07211304 0.00653076 C18.02537637 0.05752002 32.66619495 0.35862864 47.375 3.3125 C48.40802246 3.51649414 49.44104492 3.72048828 50.50537109 3.93066406 C69.58955782 7.82516467 89.92634644 12.90392629 103.12109375 28.34375 C106.66853221 33.91355991 107.88205379 38.67571759 107.75 45.25 C107.74129883 45.98436279 107.73259766 46.71872559 107.72363281 47.4753418 C106.97368993 76.20983352 93.36362934 102.32918376 72.94140625 121.984375 C70.375 124.3125 70.375 124.3125 67.375 126.3125 C68.11810457 139.73574492 70.09116618 153.02634693 71.86645508 166.3425293 C72.28122909 169.46347117 72.6897382 172.58518699 73.09765625 175.70703125 C73.22576187 176.65302689 73.35386749 177.59902252 73.4858551 178.57368469 C74.17536878 183.87294557 74.50284355 188.9684834 74.375 194.3125 C75.06722656 194.55226562 75.75945312 194.79203125 76.47265625 195.0390625 C79.89281451 196.53969722 82.80316761 198.50803567 85.8125 200.6875 C86.72286011 201.34407593 86.72286011 201.34407593 87.65161133 202.01391602 C103.07267453 213.31104167 116.63572585 226.37748199 128.12890625 241.65625 C129.26325083 243.16396819 130.41210783 244.66074018 131.5625 246.15625 C143.95515852 262.61524959 152.33635458 279.81972826 150.1015625 300.890625 C148.23583654 311.80336178 143.68040879 321.06394215 136.375 329.3125 C135.89933594 329.91578125 135.42367188 330.5190625 134.93359375 331.140625 C113.1756621 356.36391914 59.10922423 360.47227648 28.63696289 362.80566406 C26.21670254 362.98144515 23.79628255 363.15149567 21.375 363.3125 C20.60807574 366.8056925 20.17652124 370.17521495 19.9644928 373.74382019 C19.89869522 374.82166779 19.83289764 375.89951538 19.7651062 377.01002502 C19.69703766 378.18258347 19.62896912 379.35514191 19.55883789 380.56323242 C19.48387589 381.80611023 19.40891388 383.04898804 19.3316803 384.32952881 C19.16925542 387.0281999 19.00805951 389.72691306 18.84883308 392.42577171 C18.59634775 396.70121502 18.33782279 400.97628001 18.07823181 405.251297 C17.34105733 417.40642853 16.61192411 429.56203545 15.88891602 441.71801758 C15.48931917 448.43556461 15.08469035 455.15279036 14.6747703 461.86971551 C14.41624686 466.11078575 14.16389711 470.35216247 13.91625035 474.59388101 C13.72328114 477.86785976 13.52119398 481.14127852 13.32055664 484.41479492 C13.25451233 485.57723221 13.18846802 486.73966949 13.12042236 487.93733215 C12.06924902 504.66523591 12.06924902 504.66523591 8.375 510.4375 C4.04526606 513.14358371 0.34434307 513.2932914 -4.625 512.3125 C-7.77535885 510.34352572 -9.16762914 508.86809635 -10.22457027 505.27325916 C-11.60101392 498.33701737 -12.1697902 491.46863259 -12.57055664 484.41479492 C-12.64727097 483.16315552 -12.72398529 481.91151611 -12.80302429 480.62194824 C-12.96761679 477.92068337 -13.12972961 475.21941188 -13.28746223 472.51775169 C-13.53707893 468.24311266 -13.79664847 463.96911193 -14.05747986 459.69514465 C-14.46874937 452.93729309 -14.87358326 446.17907444 -15.27555698 439.42066413 C-15.99609603 427.3071479 -16.72447664 415.19410654 -17.45998853 403.08149034 C-17.71756495 398.8347359 -17.97127997 394.58777357 -18.22185338 390.34060037 C-18.41490129 387.08132061 -18.61227282 383.82230167 -18.80883789 380.56323242 C-18.87690643 379.39067398 -18.94497498 378.21811554 -19.0151062 377.01002502 C-19.08090378 375.93217743 -19.14670135 374.85432983 -19.2144928 373.74382019 C-19.29770578 372.34328038 -19.29770578 372.34328038 -19.38259983 370.91444683 C-19.62388671 368.32445013 -20.06754985 365.85157821 -20.625 363.3125 C-21.86080811 363.20760254 -21.86080811 363.20760254 -23.12158203 363.10058594 C-40.12105516 361.63018234 -56.93685646 360.00828313 -73.625 356.3125 C-74.53588379 356.11317871 -75.44676758 355.91385742 -76.38525391 355.70849609 C-87.93430662 353.11250726 -98.98689294 349.65654533 -110 345.3125 C-111.02778564 344.90950684 -112.05557129 344.50651367 -113.11450195 344.09130859 C-128.18332659 337.92313142 -139.31865016 328.62051912 -145.84765625 313.4765625 C-151.33436375 299.12066115 -151.09613317 284.14257812 -145.21875 269.90625 C-138.84406883 256.55550263 -130.33569125 244.44069149 -120.625 233.3125 C-119.79484375 232.35988281 -118.9646875 231.40726563 -118.109375 230.42578125 C-107.18870648 218.11120005 -95.2839211 207.49170069 -81.625 198.3125 C-80.00078125 197.18521484 -80.00078125 197.18521484 -78.34375 196.03515625 C-75.625 194.3125 -75.625 194.3125 -73.625 194.3125 C-73.58834229 193.43158691 -73.55168457 192.55067383 -73.51391602 191.64306641 C-72.87768276 179.22826023 -71.24767803 166.99755554 -69.5625 154.6875 C-69.13850201 151.57592909 -68.71622902 148.46416382 -68.29872131 145.35171509 C-68.0411158 143.43238199 -67.77979676 141.51354236 -67.5141449 139.5953064 C-66.59539525 132.97707929 -66.59539525 132.97707929 -66.625 126.3125 C-68.4736364 123.99274196 -68.4736364 123.99274196 -71.0625 122.0625 C-79.9286922 114.57382354 -86.88784102 106.40683317 -92.625 96.3125 C-93.11830811 95.45060059 -93.11830811 95.45060059 -93.62158203 94.57128906 C-103.19101548 77.5739597 -110.97203356 53.85243257 -105.82421875 34.265625 C-100.07049319 21.53229421 -87.02231597 15.38415813 -74.65869141 10.54248047 C-66.87479968 7.69452212 -58.85584878 5.8054424 -50.75 4.125 C-50.00911133 3.96999023 -49.26822266 3.81498047 -48.50488281 3.65527344 C-32.4069198 0.53097533 -16.35114721 -0.06264486 0 0 Z " fill="#000000" transform="translate(255.625,-0.3125)"/>
</svg>
